
        <svg xmlns="http://www.w3.org/2000/svg"
            viewBox="-20 -38.0 76.0 45.0">
            
        <defs>
            <marker
                id="arrow"
                markerWidth="10"
                markerHeight="10"
                refX="8"
                refY="3"
                orient="auto">

                <path d="M 0,0 L 0,6 L 9,3 z" fill="black"/>
            </marker>
        </defs>
        
            
            <rect
                x="-20"
                y="-38.0"
                width="76.0"
                height="45.0"
                fill="#40eba4" />
            
            <path d="M 50.0,5.0 L 50.0,3.0 L 0.0,3.0 L 0.0,5.0 L 50.0,5.0 Z"  fill="#aaa" stroke="#aaa" stroke-width="0.2" />
<path d="M 50.0,3.0 L 50.0,1.0 L 0.0,1.0 L 0.0,3.0 L 50.0,3.0 Z"  fill="#aaa" stroke="#aaa" stroke-width="0.2" />
<path d="M 0.0,-5.0 L 0.0,-3.0 L 50.0,-3.0 L 50.0,-5.0 L 0.0,-5.0 Z"  fill="#aaa" stroke="#aaa" stroke-width="0.2" />
<path d="M 0.0,-3.0 L 0.0,-1.0 L 50.0,-1.0 L 50.0,-3.0 L 0.0,-3.0 Z"  fill="#aaa" stroke="#aaa" stroke-width="0.2" />
<path d="M 0.0,-1.0 L 0.0,1.0 L 50.0,1.0 L 50.0,-1.0 L 0.0,-1.0 Z"  fill="#aaa" stroke="#aaa" stroke-width="0.2" />
<path d="M 50.0,-8.0 L 50.0,-10.0 L 0.0,-10.0 L 0.0,-8.0 L 50.0,-8.0 Z"  fill="#aaa" stroke="#aaa" stroke-width="0.2" />
<path d="M 50.0,-10.0 L 50.0,-12.0 L 0.0,-12.0 L 0.0,-10.0 L 50.0,-10.0 Z"  fill="#aaa" stroke="#aaa" stroke-width="0.2" />
<path d="M 0.0,-18.0 L 0.0,-16.0 L 50.0,-16.0 L 50.0,-18.0 L 0.0,-18.0 Z"  fill="#aaa" stroke="#aaa" stroke-width="0.2" />
<path d="M 0.0,-16.0 L 0.0,-14.0 L 50.0,-14.0 L 50.0,-16.0 L 0.0,-16.0 Z"  fill="#aaa" stroke="#aaa" stroke-width="0.2" />
<path d="M 0.0,-14.0 L 0.0,-12.0 L 50.0,-12.0 L 50.0,-14.0 L 0.0,-14.0 Z"  fill="#aaa" stroke="#aaa" stroke-width="0.2" />
<path d="M 50.0,-21.0 L 50.0,-23.0 L 0.0,-23.0 L 0.0,-21.0 L 50.0,-21.0 Z"  fill="#aaa" stroke="#aaa" stroke-width="0.2" />
<path d="M 50.0,-23.0 L 50.0,-25.0 L 0.0,-25.0 L 0.0,-23.0 L 50.0,-23.0 Z"  fill="#aaa" stroke="#aaa" stroke-width="0.2" />
<path d="M 50.0,-25.0 L 50.0,-27.0 L 0.0,-27.0 L 0.0,-25.0 L 50.0,-25.0 Z"  fill="#aaa" stroke="#aaa" stroke-width="0.2" />
<path d="M 50.0,-30.0 L 50.0,-32.0 L 0.0,-32.0 L 0.0,-30.0 L 50.0,-30.0 Z"  fill="#aaa" stroke="#aaa" stroke-width="0.2" />
<path d="M 50.0,-32.0 L 50.0,-34.0 L 0.0,-34.0 L 0.0,-32.0 L 50.0,-32.0 Z"  fill="#aaa" stroke="#aaa" stroke-width="0.2" />
<path d="M 50.0,-34.0 L 50.0,-36.0 L 0.0,-36.0 L 0.0,-34.0 L 50.0,-34.0 Z"  fill="#aaa" stroke="#aaa" stroke-width="0.2" />
<path d="M 0.0,1.0 L 0.0,-5.0 L 0.0,1.0 L 0.0,1.0 Z"  fill="#aaa" stroke="#aaa" stroke-width="0.2" />
<path d="M 50.0,1.0 L 50.0,5.0 L 50.0,1.0 L 50.0,1.0 Z"  fill="#aaa" stroke="#aaa" stroke-width="0.2" />
<path d="M 0.0,-12.0 L 0.0,-18.0 L 0.0,-12.0 L 0.0,-12.0 Z"  fill="#aaa" stroke="#aaa" stroke-width="0.2" />
<path d="M 50.0,-12.0 L 50.0,-8.0 L 50.0,-12.0 L 50.0,-12.0 Z"  fill="#aaa" stroke="#aaa" stroke-width="0.2" />
<path d="M 4.5,3.1 L 4.5,2.9 L 1.5,2.9 L 1.5,3.1 L 4.5,3.1 Z"  fill="white" stroke="white" stroke-width="0.2" />
<path d="M 10.5,3.1 L 10.5,2.9 L 7.5,2.9 L 7.5,3.1 L 10.5,3.1 Z"  fill="white" stroke="white" stroke-width="0.2" />
<path d="M 16.5,3.1 L 16.5,2.9 L 13.5,2.9 L 13.5,3.1 L 16.5,3.1 Z"  fill="white" stroke="white" stroke-width="0.2" />
<path d="M 22.5,3.1 L 22.5,2.9 L 19.5,2.9 L 19.5,3.1 L 22.5,3.1 Z"  fill="white" stroke="white" stroke-width="0.2" />
<path d="M 28.499999999999996,3.1 L 28.499999999999996,2.9 L 25.5,2.9 L 25.5,3.1 L 28.499999999999996,3.1 Z"  fill="white" stroke="white" stroke-width="0.2" />
<path d="M 34.5,3.1 L 34.5,2.9 L 31.5,2.9 L 31.5,3.1 L 34.5,3.1 Z"  fill="white" stroke="white" stroke-width="0.2" />
<path d="M 40.5,3.1 L 40.5,2.9 L 37.5,2.9 L 37.5,3.1 L 40.5,3.1 Z"  fill="white" stroke="white" stroke-width="0.2" />
<path d="M 46.5,3.1 L 46.5,2.9 L 43.5,2.9 L 43.5,3.1 L 46.5,3.1 Z"  fill="white" stroke="white" stroke-width="0.2" />
<path d="M 50.0,3.1 L 50.0,2.9 L 49.5,2.9 L 49.5,3.1 L 50.0,3.1 Z"  fill="white" stroke="white" stroke-width="0.2" />
<path d="M 45.5,-3.1 L 45.5,-2.9 L 48.5,-2.9 L 48.5,-3.1 L 45.5,-3.1 Z"  fill="white" stroke="white" stroke-width="0.2" />
<path d="M 39.5,-3.1 L 39.5,-2.9 L 42.5,-2.9 L 42.5,-3.1 L 39.5,-3.1 Z"  fill="white" stroke="white" stroke-width="0.2" />
<path d="M 33.5,-3.1 L 33.5,-2.9 L 36.5,-2.9 L 36.5,-3.1 L 33.5,-3.1 Z"  fill="white" stroke="white" stroke-width="0.2" />
<path d="M 27.5,-3.1 L 27.5,-2.9 L 30.5,-2.9 L 30.5,-3.1 L 27.5,-3.1 Z"  fill="white" stroke="white" stroke-width="0.2" />
<path d="M 21.500000000000004,-3.1 L 21.500000000000004,-2.9 L 24.5,-2.9 L 24.5,-3.1 L 21.500000000000004,-3.1 Z"  fill="white" stroke="white" stroke-width="0.2" />
<path d="M 15.5,-3.1 L 15.5,-2.9 L 18.5,-2.9 L 18.5,-3.1 L 15.5,-3.1 Z"  fill="white" stroke="white" stroke-width="0.2" />
<path d="M 9.5,-3.1 L 9.5,-2.9 L 12.5,-2.9 L 12.5,-3.1 L 9.5,-3.1 Z"  fill="white" stroke="white" stroke-width="0.2" />
<path d="M 3.5,-3.1 L 3.5,-2.9 L 6.5,-2.9 L 6.5,-3.1 L 3.5,-3.1 Z"  fill="white" stroke="white" stroke-width="0.2" />
<path d="M 0.0,-3.1 L 0.0,-2.9 L 0.5,-2.9 L 0.5,-3.1 L 0.0,-3.1 Z"  fill="white" stroke="white" stroke-width="0.2" />
<path d="M 45.5,-1.1 L 45.5,-0.9 L 48.5,-0.9 L 48.5,-1.1 L 45.5,-1.1 Z"  fill="white" stroke="white" stroke-width="0.2" />
<path d="M 39.5,-1.1 L 39.5,-0.9 L 42.5,-0.9 L 42.5,-1.1 L 39.5,-1.1 Z"  fill="white" stroke="white" stroke-width="0.2" />
<path d="M 33.5,-1.1 L 33.5,-0.9 L 36.5,-0.9 L 36.5,-1.1 L 33.5,-1.1 Z"  fill="white" stroke="white" stroke-width="0.2" />
<path d="M 27.5,-1.1 L 27.5,-0.9 L 30.5,-0.9 L 30.5,-1.1 L 27.5,-1.1 Z"  fill="white" stroke="white" stroke-width="0.2" />
<path d="M 21.500000000000004,-1.1 L 21.500000000000004,-0.9 L 24.5,-0.9 L 24.5,-1.1 L 21.500000000000004,-1.1 Z"  fill="white" stroke="white" stroke-width="0.2" />
<path d="M 15.5,-1.1 L 15.5,-0.9 L 18.5,-0.9 L 18.5,-1.1 L 15.5,-1.1 Z"  fill="white" stroke="white" stroke-width="0.2" />
<path d="M 9.5,-1.1 L 9.5,-0.9 L 12.5,-0.9 L 12.5,-1.1 L 9.5,-1.1 Z"  fill="white" stroke="white" stroke-width="0.2" />
<path d="M 3.5,-1.1 L 3.5,-0.9 L 6.5,-0.9 L 6.5,-1.1 L 3.5,-1.1 Z"  fill="white" stroke="white" stroke-width="0.2" />
<path d="M 0.0,-1.1 L 0.0,-0.9 L 0.5,-0.9 L 0.5,-1.1 L 0.0,-1.1 Z"  fill="white" stroke="white" stroke-width="0.2" />
<path d="M 4.5,-9.9 L 4.5,-10.1 L 1.5,-10.1 L 1.5,-9.9 L 4.5,-9.9 Z"  fill="white" stroke="white" stroke-width="0.2" />
<path d="M 10.5,-9.9 L 10.5,-10.1 L 7.5,-10.1 L 7.5,-9.9 L 10.5,-9.9 Z"  fill="white" stroke="white" stroke-width="0.2" />
<path d="M 16.5,-9.9 L 16.5,-10.1 L 13.5,-10.1 L 13.5,-9.9 L 16.5,-9.9 Z"  fill="white" stroke="white" stroke-width="0.2" />
<path d="M 22.5,-9.9 L 22.5,-10.1 L 19.5,-10.1 L 19.5,-9.9 L 22.5,-9.9 Z"  fill="white" stroke="white" stroke-width="0.2" />
<path d="M 28.499999999999996,-9.9 L 28.499999999999996,-10.1 L 25.5,-10.1 L 25.5,-9.9 L 28.499999999999996,-9.9 Z"  fill="white" stroke="white" stroke-width="0.2" />
<path d="M 34.5,-9.9 L 34.5,-10.1 L 31.5,-10.1 L 31.5,-9.9 L 34.5,-9.9 Z"  fill="white" stroke="white" stroke-width="0.2" />
<path d="M 40.5,-9.9 L 40.5,-10.1 L 37.5,-10.1 L 37.5,-9.9 L 40.5,-9.9 Z"  fill="white" stroke="white" stroke-width="0.2" />
<path d="M 46.5,-9.9 L 46.5,-10.1 L 43.5,-10.1 L 43.5,-9.9 L 46.5,-9.9 Z"  fill="white" stroke="white" stroke-width="0.2" />
<path d="M 50.0,-9.9 L 50.0,-10.1 L 49.5,-10.1 L 49.5,-9.9 L 50.0,-9.9 Z"  fill="white" stroke="white" stroke-width="0.2" />
<path d="M 45.5,-16.1 L 45.5,-15.9 L 48.5,-15.9 L 48.5,-16.1 L 45.5,-16.1 Z"  fill="white" stroke="white" stroke-width="0.2" />
<path d="M 39.5,-16.1 L 39.5,-15.9 L 42.5,-15.9 L 42.5,-16.1 L 39.5,-16.1 Z"  fill="white" stroke="white" stroke-width="0.2" />
<path d="M 33.5,-16.1 L 33.5,-15.9 L 36.5,-15.9 L 36.5,-16.1 L 33.5,-16.1 Z"  fill="white" stroke="white" stroke-width="0.2" />
<path d="M 27.5,-16.1 L 27.5,-15.9 L 30.5,-15.9 L 30.5,-16.1 L 27.5,-16.1 Z"  fill="white" stroke="white" stroke-width="0.2" />
<path d="M 21.500000000000004,-16.1 L 21.500000000000004,-15.9 L 24.5,-15.9 L 24.5,-16.1 L 21.500000000000004,-16.1 Z"  fill="white" stroke="white" stroke-width="0.2" />
<path d="M 15.5,-16.1 L 15.5,-15.9 L 18.5,-15.9 L 18.5,-16.1 L 15.5,-16.1 Z"  fill="white" stroke="white" stroke-width="0.2" />
<path d="M 9.5,-16.1 L 9.5,-15.9 L 12.5,-15.9 L 12.5,-16.1 L 9.5,-16.1 Z"  fill="white" stroke="white" stroke-width="0.2" />
<path d="M 3.5,-16.1 L 3.5,-15.9 L 6.5,-15.9 L 6.5,-16.1 L 3.5,-16.1 Z"  fill="white" stroke="white" stroke-width="0.2" />
<path d="M 0.0,-16.1 L 0.0,-15.9 L 0.5,-15.9 L 0.5,-16.1 L 0.0,-16.1 Z"  fill="white" stroke="white" stroke-width="0.2" />
<path d="M 45.5,-14.1 L 45.5,-13.9 L 48.5,-13.9 L 48.5,-14.1 L 45.5,-14.1 Z"  fill="white" stroke="white" stroke-width="0.2" />
<path d="M 39.5,-14.1 L 39.5,-13.9 L 42.5,-13.9 L 42.5,-14.1 L 39.5,-14.1 Z"  fill="white" stroke="white" stroke-width="0.2" />
<path d="M 33.5,-14.1 L 33.5,-13.9 L 36.5,-13.9 L 36.5,-14.1 L 33.5,-14.1 Z"  fill="white" stroke="white" stroke-width="0.2" />
<path d="M 27.5,-14.1 L 27.5,-13.9 L 30.5,-13.9 L 30.5,-14.1 L 27.5,-14.1 Z"  fill="white" stroke="white" stroke-width="0.2" />
<path d="M 21.500000000000004,-14.1 L 21.500000000000004,-13.9 L 24.5,-13.9 L 24.5,-14.1 L 21.500000000000004,-14.1 Z"  fill="white" stroke="white" stroke-width="0.2" />
<path d="M 15.5,-14.1 L 15.5,-13.9 L 18.5,-13.9 L 18.5,-14.1 L 15.5,-14.1 Z"  fill="white" stroke="white" stroke-width="0.2" />
<path d="M 9.5,-14.1 L 9.5,-13.9 L 12.5,-13.9 L 12.5,-14.1 L 9.5,-14.1 Z"  fill="white" stroke="white" stroke-width="0.2" />
<path d="M 3.5,-14.1 L 3.5,-13.9 L 6.5,-13.9 L 6.5,-14.1 L 3.5,-14.1 Z"  fill="white" stroke="white" stroke-width="0.2" />
<path d="M 0.0,-14.1 L 0.0,-13.9 L 0.5,-13.9 L 0.5,-14.1 L 0.0,-14.1 Z"  fill="white" stroke="white" stroke-width="0.2" />
<path d="M 4.5,-22.9 L 4.5,-23.1 L 1.5,-23.1 L 1.5,-22.9 L 4.5,-22.9 Z"  fill="white" stroke="white" stroke-width="0.2" />
<path d="M 10.5,-22.9 L 10.5,-23.1 L 7.5,-23.1 L 7.5,-22.9 L 10.5,-22.9 Z"  fill="white" stroke="white" stroke-width="0.2" />
<path d="M 16.5,-22.9 L 16.5,-23.1 L 13.5,-23.1 L 13.5,-22.9 L 16.5,-22.9 Z"  fill="white" stroke="white" stroke-width="0.2" />
<path d="M 22.5,-22.9 L 22.5,-23.1 L 19.5,-23.1 L 19.5,-22.9 L 22.5,-22.9 Z"  fill="white" stroke="white" stroke-width="0.2" />
<path d="M 28.499999999999996,-22.9 L 28.499999999999996,-23.1 L 25.5,-23.1 L 25.5,-22.9 L 28.499999999999996,-22.9 Z"  fill="white" stroke="white" stroke-width="0.2" />
<path d="M 34.5,-22.9 L 34.5,-23.1 L 31.5,-23.1 L 31.5,-22.9 L 34.5,-22.9 Z"  fill="white" stroke="white" stroke-width="0.2" />
<path d="M 40.5,-22.9 L 40.5,-23.1 L 37.5,-23.1 L 37.5,-22.9 L 40.5,-22.9 Z"  fill="white" stroke="white" stroke-width="0.2" />
<path d="M 46.5,-22.9 L 46.5,-23.1 L 43.5,-23.1 L 43.5,-22.9 L 46.5,-22.9 Z"  fill="white" stroke="white" stroke-width="0.2" />
<path d="M 50.0,-22.9 L 50.0,-23.1 L 49.5,-23.1 L 49.5,-22.9 L 50.0,-22.9 Z"  fill="white" stroke="white" stroke-width="0.2" />
<path d="M 4.5,-24.9 L 4.5,-25.1 L 1.5,-25.1 L 1.5,-24.9 L 4.5,-24.9 Z"  fill="white" stroke="white" stroke-width="0.2" />
<path d="M 10.5,-24.9 L 10.5,-25.1 L 7.5,-25.1 L 7.5,-24.9 L 10.5,-24.9 Z"  fill="white" stroke="white" stroke-width="0.2" />
<path d="M 16.5,-24.9 L 16.5,-25.1 L 13.5,-25.1 L 13.5,-24.9 L 16.5,-24.9 Z"  fill="white" stroke="white" stroke-width="0.2" />
<path d="M 22.5,-24.9 L 22.5,-25.1 L 19.5,-25.1 L 19.5,-24.9 L 22.5,-24.9 Z"  fill="white" stroke="white" stroke-width="0.2" />
<path d="M 28.499999999999996,-24.9 L 28.499999999999996,-25.1 L 25.5,-25.1 L 25.5,-24.9 L 28.499999999999996,-24.9 Z"  fill="white" stroke="white" stroke-width="0.2" />
<path d="M 34.5,-24.9 L 34.5,-25.1 L 31.5,-25.1 L 31.5,-24.9 L 34.5,-24.9 Z"  fill="white" stroke="white" stroke-width="0.2" />
<path d="M 40.5,-24.9 L 40.5,-25.1 L 37.5,-25.1 L 37.5,-24.9 L 40.5,-24.9 Z"  fill="white" stroke="white" stroke-width="0.2" />
<path d="M 46.5,-24.9 L 46.5,-25.1 L 43.5,-25.1 L 43.5,-24.9 L 46.5,-24.9 Z"  fill="white" stroke="white" stroke-width="0.2" />
<path d="M 50.0,-24.9 L 50.0,-25.1 L 49.5,-25.1 L 49.5,-24.9 L 50.0,-24.9 Z"  fill="white" stroke="white" stroke-width="0.2" />
<path d="M 4.5,-31.9 L 4.5,-32.1 L 1.5,-32.1 L 1.5,-31.9 L 4.5,-31.9 Z"  fill="white" stroke="white" stroke-width="0.2" />
<path d="M 10.5,-31.9 L 10.5,-32.1 L 7.5,-32.1 L 7.5,-31.9 L 10.5,-31.9 Z"  fill="white" stroke="white" stroke-width="0.2" />
<path d="M 16.5,-31.9 L 16.5,-32.1 L 13.5,-32.1 L 13.5,-31.9 L 16.5,-31.9 Z"  fill="white" stroke="white" stroke-width="0.2" />
<path d="M 22.5,-31.9 L 22.5,-32.1 L 19.5,-32.1 L 19.5,-31.9 L 22.5,-31.9 Z"  fill="white" stroke="white" stroke-width="0.2" />
<path d="M 28.499999999999996,-31.9 L 28.499999999999996,-32.1 L 25.5,-32.1 L 25.5,-31.9 L 28.499999999999996,-31.9 Z"  fill="white" stroke="white" stroke-width="0.2" />
<path d="M 34.5,-31.9 L 34.5,-32.1 L 31.5,-32.1 L 31.5,-31.9 L 34.5,-31.9 Z"  fill="white" stroke="white" stroke-width="0.2" />
<path d="M 40.5,-31.9 L 40.5,-32.1 L 37.5,-32.1 L 37.5,-31.9 L 40.5,-31.9 Z"  fill="white" stroke="white" stroke-width="0.2" />
<path d="M 46.5,-31.9 L 46.5,-32.1 L 43.5,-32.1 L 43.5,-31.9 L 46.5,-31.9 Z"  fill="white" stroke="white" stroke-width="0.2" />
<path d="M 50.0,-31.9 L 50.0,-32.1 L 49.5,-32.1 L 49.5,-31.9 L 50.0,-31.9 Z"  fill="white" stroke="white" stroke-width="0.2" />
<path d="M 4.5,-33.9 L 4.5,-34.1 L 1.5,-34.1 L 1.5,-33.9 L 4.5,-33.9 Z"  fill="white" stroke="white" stroke-width="0.2" />
<path d="M 10.5,-33.9 L 10.5,-34.1 L 7.5,-34.1 L 7.5,-33.9 L 10.5,-33.9 Z"  fill="white" stroke="white" stroke-width="0.2" />
<path d="M 16.5,-33.9 L 16.5,-34.1 L 13.5,-34.1 L 13.5,-33.9 L 16.5,-33.9 Z"  fill="white" stroke="white" stroke-width="0.2" />
<path d="M 22.5,-33.9 L 22.5,-34.1 L 19.5,-34.1 L 19.5,-33.9 L 22.5,-33.9 Z"  fill="white" stroke="white" stroke-width="0.2" />
<path d="M 28.499999999999996,-33.9 L 28.499999999999996,-34.1 L 25.5,-34.1 L 25.5,-33.9 L 28.499999999999996,-33.9 Z"  fill="white" stroke="white" stroke-width="0.2" />
<path d="M 34.5,-33.9 L 34.5,-34.1 L 31.5,-34.1 L 31.5,-33.9 L 34.5,-33.9 Z"  fill="white" stroke="white" stroke-width="0.2" />
<path d="M 40.5,-33.9 L 40.5,-34.1 L 37.5,-34.1 L 37.5,-33.9 L 40.5,-33.9 Z"  fill="white" stroke="white" stroke-width="0.2" />
<path d="M 46.5,-33.9 L 46.5,-34.1 L 43.5,-34.1 L 43.5,-33.9 L 46.5,-33.9 Z"  fill="white" stroke="white" stroke-width="0.2" />
<path d="M 50.0,-33.9 L 50.0,-34.1 L 49.5,-34.1 L 49.5,-33.9 L 50.0,-33.9 Z"  fill="white" stroke="white" stroke-width="0.2" />
<path d="M 49.99508879459375,1.1 L 49.99508879459375,0.9 L 3.6673267326732675,0.8999999999999999 L 3.6673267326732675,1.0999999999999999 L 49.99508879459375,1.1 Z"  fill="white" stroke="white" stroke-width="0.2" />
<path d="M 3.667326732673267,1.0999999999999996 L 3.667326732673267,0.8999999999999996 L 1.920792079207921,0.8999999999999998 L 1.920792079207921,1.0999999999999999 L 3.667326732673267,1.0999999999999996 Z"  fill="white" stroke="white" stroke-width="0.2" />
<path d="M 1.9207920792079207,1.0999999999999996 L 1.9207920792079207,0.8999999999999996 L 0.0049112054062547695,0.9 L 0.004911205406254816,1.1 L 1.9207920792079207,1.0999999999999996 Z"  fill="white" stroke="white" stroke-width="0.2" />
<path d="M 49.99508879459375,-11.9 L 49.99508879459375,-12.1 L 0.004911205406254259,-12.1 L 0.004911205406254259,-11.9 L 49.99508879459375,-11.9 Z"  fill="white" stroke="white" stroke-width="0.2" />
<circle cx="0" cy="0"  fill="black" stroke="none" r="0.3" />
<circle cx="50" cy="0"  fill="black" stroke="none" r="0.3" />
<line x1="0" y1="0" x2="50" y2="0"  fill="none" stroke="black" stroke-width="0.1" marker-end="{}" stroke-dasharray="1,1" />
<text x="-10" y="0"  fill="black" font-size="2" text-anchor="middle">roadCenter</text>
<circle cx="0" cy="-12"  fill="black" stroke="none" r="0.3" />
<circle cx="50" cy="-12"  fill="black" stroke="none" r="0.3" />
<line x1="0" y1="-12" x2="50" y2="-12"  fill="none" stroke="black" stroke-width="0.1" marker-end="{}" stroke-dasharray="1,1" />
<text x="-10" y="-12"  fill="black" font-size="2" text-anchor="middle">right/center</text>
<circle cx="0" cy="-24"  fill="black" stroke="none" r="0.3" />
<circle cx="50" cy="-24"  fill="black" stroke="none" r="0.3" />
<line x1="0" y1="-24" x2="50" y2="-24"  fill="none" stroke="black" stroke-width="0.1" marker-end="{}" stroke-dasharray="1,1" />
<text x="-10" y="-24"  fill="black" font-size="2" text-anchor="middle">center</text>
<circle cx="0" cy="-36"  fill="black" stroke="none" r="0.3" />
<circle cx="50" cy="-36"  fill="black" stroke="none" r="0.3" />
<line x1="0" y1="-36" x2="50" y2="-36"  fill="none" stroke="black" stroke-width="0.1" marker-end="{}" stroke-dasharray="1,1" />
<text x="-10" y="-33"  fill="black" font-size="2" text-anchor="middle">right/roadCenter</text>
        </svg>
        